# xmcd CD database file
#
# Track frame offsets:
#	150
#	2569
#	20368
#	33955
#	52254
#	68619
#	84370
#	106060
#	121285
#	147558
#	167111
#	185166
#	198514
#	216635
#	236187
#	252342
#	270067
#	288242
#	315727
#
# Disc length: 4430 seconds
#
# Revision: 0
# Processed by: cddbd v1.5.1PL2 Copyright (c) Steve Scherf et al.
# Submitted via: CDex 1.51
#
DISCID=13114c13
DTITLE=Various Artist - Deep Heat The 3rd Attack CD 1
DYEAR=1999
DGENRE=Mix
TTITLE0=Intro
TTITLE1=E Type - Hold your hores tonight
TTITLE2=Bandido - For Sale
TTITLE3=Loona - Oye Oye
TTITLE4=Vangaboys - We´re going to Ibiza
TTITLE5=Candy Beat - Saxý 99
TTITLE6=Miss Peppermint - Welcome to tomorrow
TTITLE7=The Dukes - Start the Game
TTITLE8=DJ Sakin - Dragonfly
TTITLE9=Mellow Trax - Mystery in Space
TTITLE10=Alex Castell - Enjoy
TTITLE11=Mythos - The Heart of the Ocean
TTITLE12=M.T.J. - Life 99
TTITLE13=Wildside - Take a Chance
TTITLE14=Modern Talking - Sexy Sexy Lover
TTITLE15=Inner City - Good Life 
TTITLE16=Armand van Helden - You don´t know me
TTITLE17=Spike - It takes two
TTITLE18=Q-Connection - Java 
EXTD=YEAR: 1999
EXTT0=
EXTT1=
EXTT2=
EXTT3=
EXTT4=
EXTT5=
EXTT6=
EXTT7=
EXTT8=
EXTT9=
EXTT10=
EXTT11=
EXTT12=
EXTT13=
EXTT14=
EXTT15=
EXTT16=
EXTT17=
EXTT18=
PLAYORDER=
